Coordinates
version=1
nRows=8
nColumns=40
inDegrees=yes

Units are S.I. units (second, meters, Newtons, ...)
If the header above contains a line with 'inDegrees', this indicates whether rotational values are in degrees (yes) or radians (no).

endheader
time	pelvis_tilt	pelvis_list	pelvis_rotation	pelvis_tx	pelvis_ty	pelvis_tz	hip_flexion_r	hip_adduction_r	hip_rotation_r	knee_angle_r	knee_angle_r_beta	ankle_angle_r	subtalar_angle_r	mtp_angle_r	hip_flexion_l	hip_adduction_l	hip_rotation_l	knee_angle_l	knee_angle_l_beta	ankle_angle_l	subtalar_angle_l	mtp_angle_l	lumbar_extension	lumbar_bending	lumbar_rotation	arm_flex_r	arm_add_r	arm_rot_r	elbow_flex_r	pro_sup_r	wrist_flex_r	wrist_dev_r	arm_flex_l	arm_add_l	arm_rot_l	elbow_flex_l	pro_sup_l	wrist_flex_l	wrist_dev_l
      0.98000000	     -5.55891849	    -12.60888815	     87.16717119	      0.16213264	      0.92077255	      0.47021629	     37.44663735	     -2.48906677	      6.86883868	     49.34937157	      0.86130902	      9.36000478	      0.00000000	      0.00000000	     13.80478881	      9.43222868	      0.12990863	      5.21252470	      0.09097572	      6.14591430	      0.00000000	      0.00000000	      8.55472478	     -6.12912016	     -0.44464154	      0.00000000	      0.00000000	      0.00000000	      0.00000000	      0.00000000	      0.00000000	      0.00000000	      0.00000000	      0.00000000	      0.00000000	      0.00000000	      0.00000000	      0.00000000	      0.00000000
      0.99000000	     -5.39160564	    -12.64047699	     87.44912817	      0.16138881	      0.91991766	      0.45316162	     38.64588414	     -2.53414278	      5.99160185	     46.21217141	      0.80655455	     10.09186788	      0.00000000	     -0.00000000	     12.19995723	      9.45993964	      0.85397590	      4.42688714	      0.07726376	      6.67772531	     -0.00000000	     -0.00000000	      8.42850815	     -5.93437777	     -0.73141758	      0.00000000	      0.00000000	     -0.00000000	      0.00000000	      0.00000000	      0.00000000	     -0.00000000	     -0.00000000	      0.00000000	     -0.00000000	      0.00000000	      0.00000000	     -0.00000000	     -0.00000000
      1.00000000	     -5.35603989	    -12.21396804	     87.78759582	      0.16047893	      0.91909506	      0.43565011	     39.19917818	     -2.87163504	      4.79376908	     42.82664448	      0.74746595	     10.60858558	      0.00000000	      0.00000000	      9.94321424	      9.65878739	      1.92942653	      3.40420892	      0.05941465	      7.15287184	      0.00000000	     -0.00000000	      7.76182586	     -5.91635195	     -1.10076045	      0.00000000	     -0.00000000	     -0.00000000	      0.00000000	      0.00000000	      0.00000000	     -0.00000000	     -0.00000000	     -0.00000000	     -0.00000000	      0.00000000	      0.00000000	      0.00000000	     -0.00000000
      1.01000000	     -5.33446526	    -11.95147762	     88.14656963	      0.15961065	      0.91747121	      0.41818378	     39.81601217	     -3.21502381	      3.42414717	     39.22910236	      0.68467700	     10.93997782	      0.00000000	      0.00000000	      7.93837083	      9.81387448	      2.82664784	      2.52498970	      0.04406938	      7.70437420	      0.00000000	     -0.00000000	      7.29297388	     -5.92093784	     -1.45544491	      0.00000000	     -0.00000000	      0.00000000	      0.00000000	      0.00000000	      0.00000000	     -0.00000000	     -0.00000000	     -0.00000000	     -0.00000000	      0.00000000	      0.00000000	      0.00000000	      0.00000000
      1.02000000	     -5.34430048	    -11.73769617	     88.49110684	      0.15883549	      0.91525283	      0.40067135	     40.37092617	     -3.55108662	      1.93544631	     35.43789227	      0.61850790	     11.09455809	      0.00000000	      0.00000000	      6.00572956	      9.95456349	      3.63953420	      1.70428208	      0.02974533	      8.26767606	      0.00000000	      0.00000000	      6.89400528	     -5.97125363	     -1.77961717	      0.00000000	      0.00000000	      0.00000000	      0.00000000	      0.00000000	      0.00000000	      0.00000000	      0.00000000	      0.00000000	      0.00000000	      0.00000000	      0.00000000	      0.00000000	      0.00000000
      1.03000000	     -5.40080025	    -11.49789033	     88.82125796	      0.15820636	      0.91258118	      0.38305129	     40.80654426	     -3.87126388	      0.38410960	     31.52717993	      0.55025309	     11.05898877	      0.00000000	      0.00000000	      4.01557438	     10.09391240	      4.41246399	      0.84465524	      0.01474201	      8.84330284	      0.00000000	      0.00000000	      6.45447870	     -6.08534766	     -2.12191204	      0.00000000	      0.00000000	      0.00000000	      0.00000000	      0.00000000	      0.00000000	      0.00000000	      0.00000000	      0.00000000	      0.00000000	      0.00000000	      0.00000000	      0.00000000	      0.00000000
      1.04000000	     -5.50120316	    -11.00296151	     89.06674042	      0.15773744	      0.90983203	      0.36508485	     40.86550914	     -4.10454121	     -1.00769562	     27.51864040	      0.48029088	     10.72289890	      0.00000000	      0.00000000	      1.59152777	     10.23583761	      5.23850378	     -0.26306157	     -0.00459129	      9.41748585	      0.00000000	      0.00000000	      5.76079803	     -6.22682209	     -2.27406357	      0.00000000	      0.00000000	      0.00000000	      0.00000000	      0.00000000	      0.00000000	      0.00000000	      0.00000000	      0.00000000	      0.00000000	      0.00000000	      0.00000000	      0.00000000	      0.00000000
      1.05000000	     -5.62283684	    -10.75319919	     89.27715944	      0.15746658	      0.90635583	      0.34723655	     41.12888313	     -4.21849843	     -2.15509860	     23.49000384	      0.40997791	     10.38625916	     -0.00000000	     -0.00000000	     -0.46277391	     10.35736119	      5.87148854	     -1.17323871	     -0.02047688	      9.97061711	     -0.00000000	      0.00000000	      5.35314606	     -6.41475346	     -2.49674103	      0.00000000	      0.00000000	      0.00000000	      0.00000000	      0.00000000	      0.00000000	      0.00000000	      0.00000000	     -0.00000000	     -0.00000000	      0.00000000	      0.00000000	      0.00000000	     -0.00000000
